<?xml version="1.0" encoding="utf-8"?>
<!-- Generator: Adobe Illustrator 27.4.1, SVG Export Plug-In . SVG Version: 6.00 Build 0)  -->
<svg version="1.1" id="Layer_1" xmlns="http://www.w3.org/2000/svg" xmlns:xlink="http://www.w3.org/1999/xlink" x="0px" y="0px"
	 viewBox="0 0 14.8 16.1" style="enable-background:new 0 0 14.8 16.1;" xml:space="preserve">
<style type="text/css">
	.trash-thin-icon-st1{fill:none;stroke:currentColor;stroke-linecap:round;stroke-linejoin:round;}
</style>
<g>
	<path class="trash-thin-icon-st1" d="M14.3,3.1H0.5"/>
	<path class="trash-thin-icon-st1" d="M5.5,6.8v5"/>
	<path class="trash-thin-icon-st1" d="M9.3,6.8v5"/>
	<path class="trash-thin-icon-st1" d="M13,3.1V15c0,0.2-0.1,0.3-0.2,0.4c-0.1,0.1-0.3,0.2-0.4,0.2h-10c-0.2,0-0.3-0.1-0.4-0.2S1.8,15.1,1.8,15V3.1
		"/>
	<path class="trash-thin-icon-st1" d="M10.5,3.1V1.8c0-0.3-0.1-0.6-0.4-0.9C9.9,0.7,9.5,0.5,9.2,0.5H5.5C5.2,0.6,4.9,0.7,4.6,0.9
		C4.4,1.2,4.3,1.5,4.3,1.8V3"/>
</g>
</svg>
